# xmcd
#
# Track frame offsets: 
#        150
#        13927
#        35930
#        55020
#        64662
#        81347
#        92787
#        107942
#        123235
#        147147
#        165215
#        185932
#        210732
#        234952
#        259222
#        272590
#        289737
#        306040
#        322037
#
# Disc length: 4537 seconds
#
# Revision: 2
# Processed by: cddbd v1.5.1PL2 Copyright (c) Steve Scherf et al.
# Submitted via: ExactAudioCopy v0.95a5
#
DISCID=1811b713
DTITLE=Lightnin' Hopkins - How Many More Years I Got
DYEAR=1989
DGENRE=Blues
TTITLE0=How Many More Years I Got
TTITLE1=Walkin' This Road By Myself
TTITLE2=The Devil Jumped the Black Man
TTITLE3=My Baby Don't Stand No Cheatin'
TTITLE4=Black Cadillac
TTITLE5=You Is One Black Rat
TTITLE6=The Fox Chase
TTITLE7=Mojo Hand
TTITLE8=Mama Blues
TTITLE9=My Black Name
TTITLE10=Prison Farm Blues
TTITLE11=Ida Mae
TTITLE12=I Got A Leak In This Old Building
TTITLE13=Happy Blues For John Glenn
TTITLE14=Worried Life Blues
TTITLE15=Sinner's Prayer
TTITLE16=Angel Child
TTITLE17=Pneumonia Blues
TTITLE18=Have you ever been mistreated
EXTD=
EXTT0=
EXTT1=
EXTT2=
EXTT3=
EXTT4=
EXTT5=
EXTT6=
EXTT7=
EXTT8=
EXTT9=
EXTT10=
EXTT11=
EXTT12=
EXTT13=
EXTT14=
EXTT15=
EXTT16=
EXTT17=
EXTT18=
PLAYORDER=
